<?xml version="1.0" encoding="utf-8"?>
<!-- Generator: Adobe Illustrator 25.2.3, SVG Export Plug-In . SVG Version: 6.00 Build 0)  -->
<svg version="1.1" id="Layer_1" xmlns="http://www.w3.org/2000/svg" xmlns:xlink="http://www.w3.org/1999/xlink" x="0px" y="0px"
	 viewBox="0 0 38 38" style="enable-background:new 0 0 38 38;" xml:space="preserve">
<style type="text/css">
	.st0{fill:#FFFFFF;}
	.st1{fill:#070D12;}
</style>
<path class="st0" d="M19,0C8.5,0,0,8.5,0,19c0,10.5,8.5,19,19,19c10.5,0,19-8.5,19-19C38,8.5,29.5,0,19,0z"/>
<path class="st0" d="M2,19c0,9.4,7.6,17,17,17V2C9.6,2,2,9.6,2,19z"/>
<path class="st1" d="M36,19c0-9.4-7.6-17-17-17V36C28.4,36,36,28.4,36,19z"/>
<path class="st0" d="M29.1,19c0-5.6-4.6-10.1-10.1-10.1v20.3C24.6,29.1,29.1,24.6,29.1,19z"/>
<path class="st1" d="M8.9,19c0,5.6,4.6,10.1,10.1,10.1V8.9C13.4,8.9,8.9,13.4,8.9,19z"/>
</svg>
