<svg id="Layer_1" data-name="Layer 1" xmlns="http://www.w3.org/2000/svg" viewBox="0 0 540 90"><defs><style>.cls-1{fill:none;stroke:#000;stroke-linecap:round;stroke-miterlimit:10;stroke-width:7px;}</style></defs><line class="cls-1" x1="39" y1="18" x2="39" y2="54.5"/><line class="cls-1" x1="228" y1="18" x2="228" y2="72.5"/><line class="cls-1" x1="12" y1="18" x2="66" y2="18"/><path class="cls-1" d="M57,54H98.52A3.48,3.48,0,0,0,102,50.52V22a3.48,3.48,0,0,0-3.48-3.48H87.38a3.49,3.49,0,0,0-3.48,3.38l-.3,10.3a3.48,3.48,0,0,1-3.42,3.38l-19.76.38A3.48,3.48,0,0,0,57,39.42v29.1A3.48,3.48,0,0,1,53.52,72H39"/><path class="cls-1" d="M84,54V68.52A3.48,3.48,0,0,0,87.48,72H102"/><path class="cls-1" d="M120,18V68.52A3.48,3.48,0,0,0,123.48,72h37A3.48,3.48,0,0,0,164,68.52V57.88a3.49,3.49,0,0,0-3.38-3.48l-10.24-.3A3.49,3.49,0,0,1,147,50.62V18"/><path class="cls-1" d="M255,18H169a3.48,3.48,0,0,0-3.48,3.48v11A3.48,3.48,0,0,0,169,36h29a3.48,3.48,0,0,1,3.48,3.48v29A3.48,3.48,0,0,1,198,72H180"/><path class="cls-1" d="M255,72V39.48A3.48,3.48,0,0,1,258.48,36h11A3.48,3.48,0,0,1,273,39.48v29A3.48,3.48,0,0,0,276.48,72h20A3.48,3.48,0,0,0,300,68.52v-47A3.48,3.48,0,0,0,296.52,18H273"/><path class="cls-1" d="M426.5,72.5V21A3.48,3.48,0,0,1,430,17.5h11A3.48,3.48,0,0,1,444.5,21V69A3.48,3.48,0,0,0,448,72.5h20A3.48,3.48,0,0,0,471.5,69V18"/><rect class="cls-1" x="317.5" y="17.5" width="36" height="54" rx="3.48"/><rect class="cls-1" x="372.5" y="17.5" width="36" height="54" rx="3.48"/><path class="cls-1" d="M525.5,71.5H493A3.48,3.48,0,0,1,489.5,68V21A3.48,3.48,0,0,1,493,17.5H525.5"/><path class="cls-1" d="M490,54h31.52A3.48,3.48,0,0,0,525,50.52V36"/></svg>